<svg id="Layer_1" data-name="Layer 1" xmlns="http://www.w3.org/2000/svg" viewBox="0 0 650.8 2384.8"><defs><style>.cls-1{stroke:#4d4d4d;}.cls-1,.cls-10,.cls-12,.cls-2,.cls-3{stroke-miterlimit:10;}.cls-2{stroke:#666;}.cls-3,.cls-5{fill:#faf7be;}.cls-3{stroke:#868c7b;}.cls-4{fill:#bab98d;}.cls-6{fill:#5d6155;}.cls-7{fill:#333;}.cls-10,.cls-8{fill:#4d4d4d;}.cls-9{fill:#fff;}.cls-10{stroke:#000;}.cls-11{fill:#868c7b;}.cls-12{stroke:#5d6155;}.cls-13{fill:#c4dae8;}.cls-14{fill:#9aa18d;}</style></defs><title>long-jacket</title><path class="cls-1" d="M612.5,2165.5s5,44,10,54,13,4,17,21,18,102,25,117,24,53,27,57,19.74,15.22,55,4c22-7,26-16,25-40s-3-44-16-68-27-58-30-83-23-27-33-48S612.5,2165.5,612.5,2165.5Z" transform="translate(-185.63 -39.05)"/><path class="cls-2" d="M364.5,2320.5l6,65s28,6,42,6,47-12,47-12-3-15,2-40,11-24,9-38-2-82,6-98,9-27,9-42-73.87-4.78-78.94-6.39-17.06,26.39-21.06,57.39-1.51,52.41-7.76,64.7-13.24,19.3-13.24,31.3Z" transform="translate(-185.63 -39.05)"/><path class="cls-3" d="M664.7,1275s-64.2,434.51-93.2,563.51-66,200-83,258-13,104-18,134-23,59-8,72-7,27-31,36-58-4-65-18,10-32,17-56,4-20,13-72,34-83,47-158,5-172,7-222,39.35-391.1,39.35-391.1l-15-162,135.68-9.87h8Z" transform="translate(-185.63 -39.05)"/><path class="cls-4" d="M376,2307c-9.65,5.79-3,21-3,21s-5.79-6.08-6.5-7.5c-7-14,10-32,17-56s4-20,13-72,34-83,47-158,5-172,7-222S481,1394,481,1394l-6.18-134.62,135.68-9.87S549,1512.59,515,1769c-15,113-34.31,203.11-57.57,286.63-12.58,45.15-24.91,85.94-36.43,120.37-9.16,27.39-5,55.33-15.63,72.67C385,2282,425,2293,414,2300,398.71,2309.73,386,2301,376,2307Z" transform="translate(-185.63 -39.05)"/><path class="cls-5" d="M715.29,2373.54c-23.1,0-40.41-15.5-48.22-28.78-3.86-6.56-6.44-15.73-9.17-25.45-1.25-4.47-2.55-9.08-4-13.6-1.63-5-3.76-10.07-5.63-14.51-2.41-5.72-4.5-10.66-5.24-14.6-1.22-6.52-.47-13.05.25-19.37,1.08-9.38,2.1-18.25-3.18-26.46-9.1-14.16-34.88-74.63-52-122.1-8.65-23.91-18.11-43.5-29.07-66.18-10.63-22-22.68-46.94-36.92-81.8l-4.59-11.22c-28.2-69-60.16-147.11-73.44-206.86-10.56-47.52-21.33-74.49-30.82-98.28-3.2-8-6.21-15.57-9.16-23.66-12.21-33.58-50-181.73-52-213.14-2-30.67,0-95.4,0-96v-.39l117.86-24.18.11.47c.14.61,14.57,62.56,32,156,14.93,80,29,121.72,39.23,152.18,6.82,20.26,11.75,34.89,13.77,51.86,1.46,12.23,2.33,25.09,3.18,37.52,2.06,30.14,4.18,61.31,14.78,85.34,15,34,40,116.66,46,186.16,6,69.07,50.32,185.68,61,210.85,6,14.22,14.2,22.79,21.42,30.34,5.86,6.13,11.4,11.93,14.58,19.66,3,7.29,4.88,16.29,6.87,25.82,2.66,12.72,5.4,25.87,11.1,36.13,11,19.84,30.89,64.64,22,76.54l-.76,1c-8.27,11.05-9.54,12.75-32.57,16.18A49.51,49.51,0,0,1,715.29,2373.54Z" transform="translate(-185.63 -39.05)"/><path class="cls-6" d="M469.5,1287.5s14.36,61.46,32,156c25,134,48,162,53,204s3,89,18,123,40,117,46,186,50,185,61,211,29,33,36,50,8,44,18,62,31,64,22,76-9.5,13.5-33,17a48.91,48.91,0,0,1-7.21.54c-20.78,0-38.81-13.28-47.79-28.54-5.59-9.51-8.5-24.65-13.14-38.94-3.66-11.26-9.53-22-10.86-29.06-3-16,6-32-3-46s-35-75-52-122-37-77-66-148-64-155-78-218-28-89-40-122-50-182-52-213,0-96,0-96l117-24m.75-1.18-1,.2-117,24-.77.16,0,.79c0,.65-2,65.4,0,96.1,2,31.43,39.84,179.68,52.06,213.28,2.95,8.1,6,15.67,9.16,23.67,9.49,23.77,20.25,50.72,30.8,98.2,13.29,59.79,45.26,138,73.46,206.94l4.59,11.22c14.25,34.88,26.3,59.82,36.93,81.83,11,22.67,20.41,42.25,29.05,66.13,17.18,47.49,43,108,52.1,122.2,5.18,8.06,4.17,16.83,3.1,26.13-.73,6.35-1.48,12.92-.25,19.52.75,4,2.84,9,5.27,14.7,1.87,4.44,4,9.46,5.62,14.48,1.46,4.5,2.76,9.11,4,13.57,2.74,9.75,5.33,19,9.22,25.57,7.88,13.39,25.34,29,48.65,29a50.16,50.16,0,0,0,7.36-.55c23.23-3.46,24.51-5.18,32.89-16.37l.76-1c9.8-13.07-13.12-61.24-21.93-77.09-5.66-10.19-8.4-23.31-11.05-36-2-9.55-3.88-18.57-6.9-25.91-3.22-7.82-8.79-13.65-14.68-19.81-7.19-7.53-15.34-16.05-21.32-30.19-10.64-25.15-54.92-141.69-60.92-210.7-6-69.56-31.07-152.3-46.08-186.32-10.56-23.95-12.69-55.07-14.74-85.17-.85-12.44-1.72-25.3-3.18-37.54-2-17-7-31.67-13.79-52-10.25-30.44-24.29-72.13-39.22-152.11-17.44-93.48-31.87-155.43-32-156l-.22-.95Z" transform="translate(-185.63 -39.05)"/><path class="cls-4" d="M697.5,2363.5c-3-5,2-16,3-22s-10-14-19-24-10-50-9-62,19-17,14-25-21-16-27-26-26-65-37-93-24-65-31-99-64-220-75-252,16-25,18-37-16.3-10.17-30-21C471,1676,467,1647,474,1627s21-11,38-11-13-32-26-35c-13.63-3.15-20-81.78-11.49-123.6,7-34.29,15.76-69.14,13.49-82.4-6-35-19-88-19-88l-113.74,24.25a3.12,3.12,0,0,0-2.84,3c-.35,12.72-1.67,66,.08,93.23,2,31,40,180,52,213s26,59,40,122,49,147,78,218,49,101,66,148,43,108,52,122,0,30,3,46c1.34,7.13,7.27,18,11,29.46,4.62,14.18,8.79,28.46,13,38.54,6.5,15.5,14.78,17.9,26,23.51a3.13,3.13,0,0,0,4.06-4.44Z" transform="translate(-185.63 -39.05)"/><polygon class="cls-7" points="414.37 1395.95 389.93 1395.95 372.56 1116.95 390.33 1116.95 414.37 1395.95"/><polygon class="cls-7" points="284.82 1401.95 260.37 1401.95 278.4 1116.95 296.17 1116.95 284.82 1401.95"/><polygon class="cls-8" points="262.82 1395.95 238.37 1395.95 262.41 1116.95 280.18 1116.95 262.82 1395.95"/><polygon class="cls-8" points="306.82 1404.95 282.37 1404.95 294.39 1116.95 312.16 1116.95 306.82 1404.95"/><polygon class="cls-8" points="392.37 1401.95 367.93 1401.95 356.57 1116.95 374.34 1116.95 392.37 1401.95"/><polygon class="cls-7" points="328.82 1407.95 304.37 1407.95 310.38 1115.95 328.15 1115.95 328.82 1407.95"/><polygon class="cls-7" points="370.37 1404.95 345.93 1404.95 340.58 1116.95 358.35 1116.95 370.37 1404.95"/><polygon class="cls-8" points="348.37 1410.95 323.93 1410.95 324.6 1118.95 342.36 1118.95 348.37 1410.95"/><path d="M666,1163s-108.17,15-144.22,15c-39.69,0-158.78-15-158.78-15V504H666Z" transform="translate(-185.63 -39.05)"/><path class="cls-5" d="M571.41,515.87S544.18,596,512.14,596s-65.65-80.15-65.65-80.15,12-29.57,12-78c0-36.2-12-78-12-78H571.41s-9,57.68-9,76.24C562.41,456.55,571.41,515.87,571.41,515.87Z" transform="translate(-185.63 -39.05)"/><path class="cls-4" d="M446.49,515.87a189.58,189.58,0,0,0,5.17-19.28q2.11-9.69,3.51-19.43A291.14,291.14,0,0,0,457.9,438c-.09-3.23,0-6.45-.33-9.69-.11-1.62-.14-3.24-.32-4.86s-.33-3.24-.46-4.87c-.71-6.5-1.58-13-2.66-19.51-2.15-13-4.84-26-7.64-39.19a191.69,191.69,0,0,1,18.66,57.64,149.18,149.18,0,0,1,1.63,20.5A176.18,176.18,0,0,1,462,478.47a148.35,148.35,0,0,1-6.19,19.39A94.17,94.17,0,0,1,446.49,515.87Z" transform="translate(-185.63 -39.05)"/><ellipse class="cls-5" cx="331.31" cy="221.27" rx="100.13" ry="140.14"/><path class="cls-4" d="M617.06,260.32a203,203,0,0,1-5.48,47.11c-1,3.85-2,7.69-3.18,11.47-.55,1.91-1.19,3.79-1.84,5.67l-1,2.82-1.08,2.78a151.62,151.62,0,0,1-10.28,21.56,128.44,128.44,0,0,1-13.87,19.58,108.79,108.79,0,0,1-17.66,16.51,86.63,86.63,0,0,1-21.45,11.76,78.38,78.38,0,0,1-24.33,4.91,85.48,85.48,0,0,1-48.1-13.33c-14.42-9-26.23-21.69-35-35.91a145.35,145.35,0,0,1-18.32-46.1A181.46,181.46,0,0,1,412,284.77a210.2,210.2,0,0,1-.47-24.45A179.93,179.93,0,0,1,420,212.63c1.25-3.83,2.57-7.62,4.08-11.34.7-1.88,1.49-3.72,2.29-5.56l1.19-2.75,1.29-2.71a174.59,174.59,0,0,1,11.56-20.88,145.89,145.89,0,0,1,14.38-18.9,104.18,104.18,0,0,1,17.71-15.75,75.11,75.11,0,0,1,88.89,0c13,9.08,23.6,21.31,31.81,34.81a161.29,161.29,0,0,1,18.08,43.74A193.07,193.07,0,0,1,617.06,260.32Zm0,0a193.07,193.07,0,0,0-5.8-47,161.29,161.29,0,0,0-18.08-43.74c-8.21-13.5-18.8-25.73-31.81-34.81a75.11,75.11,0,0,0-88.89,0,108,108,0,0,0-31.54,35A142.18,142.18,0,0,0,425.2,214a188.53,188.53,0,0,0-2.87,23.17,226.74,226.74,0,0,0-.29,23.2,185,185,0,0,0,7.66,45.22,187,187,0,0,0,17.83,41.38c7.65,12.79,17,24.54,28.62,33.71a70.62,70.62,0,0,0,40.79,15.79A73.84,73.84,0,0,0,560,384a99.18,99.18,0,0,0,17.76-15,125.49,125.49,0,0,0,14.34-18.55,149.66,149.66,0,0,0,11-20.84l1.18-2.71,1.08-2.76c.72-1.84,1.45-3.67,2.06-5.55,1.31-3.73,2.42-7.52,3.47-11.33A184.06,184.06,0,0,0,617.06,260.32Z" transform="translate(-185.63 -39.05)"/><path class="cls-9" d="M460,58" transform="translate(-185.63 -39.05)"/><path class="cls-10" d="M721,1158.9v32.18s-106.35,16.82-193.54,16.68c-85.29-.14-190.91-17.56-190.91-17.56v-23.39s141.51,8.94,188.68,8C574.18,1173.77,721,1158.9,721,1158.9Z" transform="translate(-185.63 -39.05)"/><path class="cls-11" d="M457,457s18.63,130.14,33.5,227.5C506,786,471.32,1243.41,463.22,1539c-6.83,249-24.36,452.39-29,503.56a16.65,16.65,0,0,1-13.92,14.91A367.79,367.79,0,0,1,319,2059c-103.63-12.56-120-33-120-33s52.33-581.91,97.18-940.52C312.51,955,349.73,854.48,350,823c.4-47.3-22-113-22-113s-40,137-39,154,42,47,42,47l-32,96s-88-53-109-97c-14.5-30.39,33.3-221.19,66.73-334.47C271.71,524.79,287,492,287,492Z" transform="translate(-185.63 -39.05)"/><path class="cls-6" d="M457.14,456.8l16.59,113.92q8.34,56.86,16.95,113.68c1.39,9.49,2.13,19.05,2.67,28.62s.82,19.14,1,28.72c.38,19.16.29,38.32,0,57.47-.52,38.31-1.74,76.61-3.15,114.9-2.89,76.57-6.69,153.11-10.49,229.64s-7.72,153.06-11.14,229.6q-2.56,57.41-4.61,114.84c-1.35,38.29-2.22,76.59-3.63,114.88l-1,28.72-1.18,28.71q-.57,14.36-1.26,28.71l-1.34,28.7q-2.84,57.4-6.37,114.76t-7.89,114.67q-2.17,28.65-4.56,57.29l-2.47,28.63-.64,7.16c-.11,1.19-.2,2.38-.39,3.59a17.36,17.36,0,0,1-1,3.49,16.89,16.89,0,0,1-10.35,9.64,21.4,21.4,0,0,1-3.54.79l-3.55.56c-2.37.37-4.74.69-7.12,1-4.76.59-9.52,1.14-14.3,1.56q-14.33,1.3-28.74,1.6t-28.83-.37c-9.61-.42-19.21-1.34-28.77-2.29a564.79,564.79,0,0,1-57.2-8.5c-4.74-1-9.47-2.09-14.19-3.32s-9.42-2.56-14.09-4.13a133.07,133.07,0,0,1-13.91-5.41,75.88,75.88,0,0,1-6.86-3.55c-1.14-.67-2.27-1.38-3.42-2.2-.57-.4-1.15-.84-1.74-1.31-.29-.24-.59-.49-.91-.78-.15-.13-.32-.3-.49-.46a8.94,8.94,0,0,1-.69-.74l-1.4-1.65.17-2.44q5.62-82.94,10.64-165.93c1.74-27.66,3.46-55.32,5.34-83s3.88-55.29,6.08-82.91,4.6-55.22,7.22-82.8,5.4-55.15,8.27-82.7q8.63-82.67,18.23-165.25c3.29-27.52,6.51-55,10-82.53s6.95-55,10.69-82.46l5.58-41.21,5.8-41.18L284.1,1095l1.47-10.29,1.56-10.37q3.22-20.73,7.2-41.29c5.28-27.41,11.52-54.6,18.39-81.55s14.41-53.71,21.71-80.34c1.81-6.66,3.59-13.32,5.24-20s3.19-13.3,4.25-19.85c.26-1.63.49-3.26.65-4.85.09-.8.14-1.58.2-2.36l.06-1.15,0-1.26c0-1.67.08-3.35.05-5v-2.53l-.05-2.53c-.12-6.76-.52-13.57-1-20.41-2.12-27.33-6.58-55.07-16-81.1h.47q-7.82,26.78-15.3,53.67c-5,17.92-9.9,35.86-14.51,53.89-2.28,9-4.5,18.05-6.47,27.14-1,4.55-1.9,9.11-2.56,13.71a23,23,0,0,0-.23,6.94,22.27,22.27,0,0,0,2.46,6.49,62.81,62.81,0,0,0,8.23,11.22c3.09,3.47,6.39,6.75,9.8,9.91a265,265,0,0,0,21.47,17.77l.14.1-.05.16-16,48-8,24-7.92,24-.09.28-.26-.15c-10.34-6.25-20.43-12.87-30.36-19.76s-19.64-14.07-29.07-21.64a318.5,318.5,0,0,1-27.13-24.11,177.22,177.22,0,0,1-12.19-13.54A102,102,0,0,1,189.85,913c-.37-.68-.71-1.37-1.06-2.05a17.42,17.42,0,0,1-1-2.25,31,31,0,0,1-1.18-4.61,68.3,68.3,0,0,1-.93-9.22,173.15,173.15,0,0,1,.41-18.28c.84-12.12,2.38-24.14,4.14-36.12,3.58-23.94,8.17-47.69,13.14-71.34,10-47.3,21.64-94.21,34.24-140.86q4.71-17.5,9.7-34.92c3.31-11.61,6.66-23.23,10.35-34.81,1.85-5.77,3.69-11.56,5.75-17.26a180.82,180.82,0,0,1,7.18-16.74c2.67-5.47,5.52-10.86,8.26-16.27s5.36-10.86,7.88-16.35l.05-.12.13,0L372,474.36Zm-.29.41L372,474.64l-84.92,17.6.18-.14a144.6,144.6,0,0,0-6.31,17q-1.33,4.33-2.49,8.72l-2.32,8.76c-1.55,5.83-3.18,11.62-5,17.34s-3.82,11.38-5.62,17.1c-3.66,11.42-7,23-10.37,34.56s-6.63,23.17-9.89,34.77c-12.94,46.44-25.16,93.1-36,140-5.38,23.49-10.44,47.05-14.5,70.77-2,11.86-3.78,23.76-4.85,35.7a169.8,169.8,0,0,0-.77,17.89,65.2,65.2,0,0,0,.7,8.79,28,28,0,0,0,1,4.17,14.41,14.41,0,0,0,.77,1.93l1,2a97.09,97.09,0,0,0,9.71,14.94,174.83,174.83,0,0,0,11.76,13.58,315.22,315.22,0,0,0,26.5,24.47c9.28,7.68,18.87,15,28.67,22s19.79,13.8,30,20.17l-.35.13,8.08-24,8-24,16-48,.08.27a249.05,249.05,0,0,1-21.36-18c-3.38-3.2-6.65-6.51-9.71-10a65.46,65.46,0,0,1-8.18-11.28,22.3,22.3,0,0,1-2.44-6.51,23.65,23.65,0,0,1,.24-6.94c.65-4.61,1.57-9.17,2.53-13.72,1.95-9.1,4.16-18.13,6.41-27.16,4.52-18,9.34-36,14.25-54s10-35.84,15.16-53.71l.21-.72.27.71c1.22,3.25,1.77,6.71,2.93,10l3.06,9.92,6.1,19.89c4,13.29,8,26.67,10.91,40.42a195.24,195.24,0,0,1,3.25,20.9c.19,1.76.32,3.53.42,5.31s.18,3.56.23,5.35l0,1.34v1.44c0,1-.05,1.9-.12,2.82-.11,1.86-.3,3.67-.51,5.47-.88,7.17-2.21,14.07-3.62,20.93s-2.95,13.65-4.51,20.42C340.13,901.17,333.63,928,328,955s-10.73,54.06-14.8,81.24q-3.07,20.38-5.39,40.83l-1.11,10.23-1,10.33-2.09,20.65-4.21,41.29-4,41.32-16.09,165.28-16.39,165.27c-2.78,27.54-5.48,55.09-8.45,82.62s-6,55-9.16,82.55-6.58,55-10,82.48l-10.46,82.44c-7,55-13.83,109.95-20.07,165l-1.23-4.09c-.21-.25-.09-.1-.08-.09l.15.16c.12.12.27.27.43.41.33.29.69.6,1.09.91.77.62,1.64,1.22,2.54,1.81a65,65,0,0,0,5.75,3.33,130.74,130.74,0,0,0,12.59,5.65,268,268,0,0,0,26.83,8.74,568.59,568.59,0,0,0,55.86,11.92c9.44,1.57,18.86,2.93,28.36,3.9s19,1.51,28.59,1.67,19.13-.08,28.67-.75c4.77-.3,9.54-.78,14.29-1.31,2.38-.28,4.75-.58,7.12-.91,1.19-.15,2.37-.35,3.55-.53a20.78,20.78,0,0,0,3.46-.76,16.59,16.59,0,0,0,6.05-3.54,16.26,16.26,0,0,0,4-5.76,16.87,16.87,0,0,0,1-3.39c.18-1.16.27-2.36.38-3.55l.65-7.15,2.48-28.63q2.41-28.63,4.57-57.28,4.34-57.3,7.91-114.66t6.39-114.76l1.34-28.7q.68-14.35,1.27-28.71l1.19-28.71,1-28.71c1.42-38.28,2.29-76.59,3.65-114.88s2.92-76.57,4.63-114.85c3.43-76.55,7.35-153.07,11.17-229.6S488,990.66,490.93,914.09c1.43-38.28,2.64-76.58,3.13-114.89.23-19.15.31-38.31-.07-57.46-.19-9.57-.49-19.15-1-28.71s-1.28-19.11-2.68-28.58q-8.68-56.81-17-113.67L465,513.91l-4.12-28.44-2.05-14.22-1-7.11-.51-3.56-.26-1.78A12.43,12.43,0,0,1,456.86,457.2Z" transform="translate(-185.63 -39.05)"/><path class="cls-6" d="M440.71,365.25l-1.21.09a248.9,248.9,0,0,0-24.7,41.76c-9.94,21.4,20.73,96.75,20.67,96.89h14.81c3.53-12.91,8.25-35.83,8.25-66.13,0-21.85-4.39-45.73-7.87-61.23A114.32,114.32,0,0,1,440.71,365.25Z" transform="translate(-185.63 -39.05)"/><path class="cls-11" d="M444.23,369.63l-.17-.2q-1.73-2.05-3.35-4.18l-1.21.09a248.9,248.9,0,0,0-24.7,41.76c-3.57,7.7-10.05,24.61-16.88,43.1,0,0-24.93,53.79-24.43,62.29.2,3.38,8.5,46.5,8.5,46.5s13.71,71.58,36.73,113.75C464.4,756.4,493,847,493,847s22.28-143.86,2.62-202C482.5,606.19,444.23,369.63,444.23,369.63Z" transform="translate(-185.63 -39.05)"/><path class="cls-6" d="M444.23,369.63c-1.18-1.46-2.35-2.92-3.52-4.39h0l-1.21.09h0a233.14,233.14,0,0,0-13.06,19.8q-6.08,10.19-11.14,20.93c-3.35,7.17-6.16,14.57-9,21.93s-5.6,14.79-8.35,22.21h0q-5.54,12-10.79,24.2-2.62,6.08-5.14,12.21c-1.68,4.08-3.31,8.19-4.59,12.42-.65,2.11-1.22,4.25-1.73,6.39a33.68,33.68,0,0,0-1,6.33,5,5,0,0,0,0,.67l.15.74c.1.49.24,1.05.36,1.58l.78,3.21c.53,2.14,1.12,4.27,1.69,6.41,2.37,8.53,4.53,17.11,6.63,25.69.52,2.15,1,4.3,1.49,6.45.25,1.09.48,2.14.74,3.19l.78,3.18c1.07,4.25,2.17,8.49,3.35,12.72q3.57,12.67,7.65,25.16c5.53,16.61,11.48,33,18.19,48.82,1.67,4,3.43,7.84,5.24,11.69s3.73,7.43,5.8,11.51l6.08,11.92c2,4,3.86,8,5.78,12s3.76,8.07,5.6,12.12,3.67,8.11,5.38,12.21,3.49,8.18,5.19,12.28l5,12.37c3.19,8.29,6.35,16.59,9.35,24.94,1.55,4.16,3,8.36,4.39,12.57s2.85,8.4,4.21,12.62C483.88,812.73,489,829.73,493,847h0c2.95-19.93,5.27-39.95,7.11-60s3.12-40.18,3.51-60.32c.18-10.07.13-20.15-.29-30.21a275.7,275.7,0,0,0-2.76-30.08,150.06,150.06,0,0,0-3-14.8c-1.22-4.89-3.09-9.59-4.26-14.49-2.58-9.74-4.7-19.59-6.78-29.44-4.12-19.72-7.89-39.51-11.55-59.32s-7.19-39.64-10.66-59.49Q453.93,429.29,444.23,369.63Zm0,0q9.72,59.65,20.09,119.19,5.19,29.77,10.66,59.49c3.66,19.81,7.43,39.6,11.55,59.32,2.08,9.85,4.2,19.71,6.78,29.44,1.17,4.9,3,9.6,4.26,14.49a150.06,150.06,0,0,1,3,14.8,275.7,275.7,0,0,1,2.76,30.08c.43,10.06.47,20.14.29,30.21-.39,20.14-1.69,40.26-3.51,60.32s-4.16,40.08-7.11,60h0c-13.73-32.65-27.94-64.93-43.07-96.68-7.52-15.89-15.45-31.56-23.54-47.1l-6.16-11.61-6.35-11.48c-2.07-3.72-4.38-7.93-6.38-12s-3.87-8.29-5.54-12.51c-6.8-16.84-11.58-34.16-15.49-51.59q-3-13.06-5.41-26.19c-.83-4.37-1.64-8.75-2.39-13.14l-1.08-6.61c-.35-2.18-.69-4.37-1-6.56-1.2-8.77-2.32-17.55-3.12-26.39l-.64-6.63-.32-3.33c0-.57-.1-1.09-.13-1.7l0-.91a7.39,7.39,0,0,1,.08-1,35,35,0,0,1,2-6.54c.81-2.08,1.7-4.11,2.56-6.15,1.74-4.07,3.37-8.17,5-12.26s3.39-8.15,5.14-12.21q5.25-12.16,10.79-24.2h0c2.74-7.42,5.51-14.83,8.35-22.21s5.68-14.77,9-21.93,7.09-14.14,11.14-20.93a233.14,233.14,0,0,1,13.06-19.8h0l1.21-.09h0C441.88,366.71,443,368.18,444.23,369.63Z" transform="translate(-185.63 -39.05)"/><path class="cls-11" d="M565.06,457s-5.63,130.14-20.5,227.5c-4.66,30.54-6,93.32-5.28,174.22.53,61.93,18.41,184.69,24.44,261.33,12.27,156,19.48,871.36,24.17,922.52a16.65,16.65,0,0,0,13.92,14.91A367.79,367.79,0,0,0,703.06,2059c103.63-12.56,120-33,120-33s-52.33-581.91-97.18-940.52C709.55,955,672.32,854.48,672.06,823c-.4-47.3,22-113,22-113s40,137,39,154-42,47-42,47l26,99s94-56,115-100c14.5-30.39-33.3-221.19-66.73-334.47-15-50.74-30.27-83.53-30.27-83.53Z" transform="translate(-185.63 -39.05)"/><path class="cls-6" d="M565.21,457.2a10.8,10.8,0,0,1,0,1.61l-.09,1.79-.18,3.59-.37,7.17-.8,14.34Q563,500,562,514.35q-1.92,28.65-4.37,57.26T552,628.76q-3.19,28.54-7.43,56.95c-1.36,9.47-2.15,19-2.79,28.55s-1,19.11-1.39,28.67c-.65,19.13-.94,38.27-1.06,57.41s-.06,38.28.09,57.42,1.62,38.24,3.22,57.31c3.36,38.13,7.78,76.16,12,114.21,2.12,19,4.25,38,6.15,57.1.94,9.53,1.86,19.05,2.64,28.59.44,4.77.74,9.54,1.08,14.32l.5,7.16.41,7.17c2.19,38.22,3.56,76.49,4.83,114.75s2.28,76.53,3.24,114.8c3.81,153.09,6.42,306.2,9.29,459.3l2.29,114.83c.43,19.14.86,38.27,1.43,57.4q.19,7.18.46,14.35c.15,4.78.35,9.56.58,14.34.08,2.39.27,4.77.42,7.16l.12,1.79c.06.59.14,1.17.24,1.75a16.29,16.29,0,0,0,11.18,12.55,21.24,21.24,0,0,0,3.47.73c1.18.18,2.36.37,3.55.52,2.37.33,4.74.62,7.11.91,4.75.53,9.51,1,14.28,1.3q14.3,1,28.65.74c9.55-.17,19.09-.69,28.57-1.67s18.91-2.33,28.34-3.9a567.62,567.62,0,0,0,55.82-11.92,267.73,267.73,0,0,0,26.81-8.74,130.57,130.57,0,0,0,12.58-5.65,65,65,0,0,0,5.75-3.33c.89-.59,1.76-1.19,2.54-1.81.39-.31.76-.61,1.08-.91.16-.15.32-.29.43-.41l.15-.16s.13-.16-.08.09l-1.23,4.09c-6.25-55-13-110-20.07-165l-10.46-82.44c-3.41-27.49-6.84-55-10-82.48s-6.29-55-9.16-82.55-5.67-55.07-8.45-82.62l-16.4-165.27-16.09-165.28-4-41.32-4.21-41.29-2.09-20.65-1-10.33-1.11-10.23q-2.31-20.45-5.39-40.83c-4.08-27.18-9.11-54.25-14.8-81.24s-12.15-53.84-18.42-80.9c-1.56-6.77-3.09-13.56-4.51-20.42s-2.74-13.76-3.62-20.93c-.21-1.8-.4-3.61-.51-5.47-.07-.92-.1-1.87-.12-2.82V823l0-1.34c0-1.79.1-3.58.22-5.35s.24-3.55.42-5.31a195,195,0,0,1,3.25-20.9c2.87-13.75,6.88-27.13,10.91-40.42l6.11-19.89,3.07-9.92c.5-1.66,1.07-3.29,1.45-5a47.8,47.8,0,0,1,1.47-5l.26-.74.22.75q7.75,26.81,15.16,53.71c4.92,17.94,9.73,35.91,14.25,54,2.25,9,4.46,18.06,6.41,27.16,1,4.55,1.89,9.11,2.53,13.72a23.66,23.66,0,0,1,.24,6.94,22.3,22.3,0,0,1-2.44,6.51,65.45,65.45,0,0,1-8.18,11.28c-3.06,3.51-6.34,6.82-9.71,10a249,249,0,0,1-21.36,18l.09-.25,13,49.51,6.47,24.76,6.58,24.73-.35-.14c10.39-6.38,20.54-13.16,30.54-20.14s19.79-14.25,29.31-21.86a355.57,355.57,0,0,0,27.4-24.11c8.61-8.54,16.81-17.64,23.07-27.9.77-1.29,1.51-2.59,2.2-3.91.36-.65.66-1.33,1-2a15.71,15.71,0,0,0,.82-1.95,36.75,36.75,0,0,0,1.53-8.6,128.11,128.11,0,0,0-.2-18c-.88-12.08-2.58-24.13-4.54-36.13-4-24-9-47.85-14.44-71.61-10.93-47.5-23.27-94.69-36.33-141.66q-4.94-17.6-10-35.17c-3.41-11.71-6.78-23.41-10.46-35-1.81-5.79-3.78-11.53-5.68-17.3s-3.54-11.62-5.1-17.52-3.08-11.83-4.86-17.69a145.19,145.19,0,0,0-6.37-17.15l.18.14-84.92-17.61Zm-.31-.39L650,474.36l85.08,17.39.13,0,.05.12q3.82,8.33,8,16.53c2.78,5.47,5.66,10.92,8.35,16.45a177.09,177.09,0,0,1,7.21,17q1.55,4.33,3,8.71c1,2.91,1.92,5.83,2.82,8.76,3.71,11.71,7.09,23.46,10.43,35.2s6.62,23.52,9.79,35.32c6.34,23.6,12.52,47.24,18.25,71s11.25,47.56,16.23,71.49,9.57,48,13.06,72.19c1.72,12.12,3.18,24.29,3.82,36.58a131.28,131.28,0,0,1-.18,18.54,39.63,39.63,0,0,1-1.88,9.33,18.79,18.79,0,0,1-1,2.25c-.36.69-.7,1.4-1.09,2.07-.75,1.37-1.55,2.7-2.37,4-6.69,10.47-15.14,19.5-24,28a363.37,363.37,0,0,1-28,23.75c-9.66,7.49-19.59,14.61-29.69,21.48s-20.37,13.47-30.86,19.73l-.27.16-.08-.31-6.42-24.77-6.53-24.74-13-49.49,0-.15.13-.1A265,265,0,0,0,712.39,893c3.4-3.16,6.71-6.44,9.8-9.91a62.82,62.82,0,0,0,8.23-11.22,22.28,22.28,0,0,0,2.46-6.49,23,23,0,0,0-.23-6.94c-.65-4.6-1.58-9.17-2.56-13.71-2-9.09-4.18-18.13-6.47-27.14-4.6-18-9.51-36-14.51-53.89s-10.09-35.81-15.3-53.67h.47c-9.47,26-13.91,53.77-16,81.11-.51,6.84-.91,13.65-1,20.41l-.05,2.53v2.53c0,1.68,0,3.36.05,5l0,1.26.06,1.15c.05.78.1,1.56.2,2.36.16,1.59.39,3.22.65,4.85,1.06,6.55,2.61,13.21,4.25,19.85s3.43,13.3,5.24,20c7.3,26.64,14.86,53.39,21.71,80.34s13.11,54.14,18.39,81.55q4,20.56,7.2,41.29l1.56,10.37L738,1095l2.93,20.59,5.8,41.18,5.58,41.21c3.74,27.47,7.21,55,10.69,82.47s6.73,55,10,82.53q9.69,82.57,18.23,165.25,4.31,41.34,8.27,82.7t7.21,82.8q3.3,41.43,6.08,82.91c1.87,27.65,3.6,55.31,5.34,83q5.11,83,10.64,165.93l.17,2.44-1.4,1.65a9,9,0,0,1-.69.74c-.17.17-.34.33-.49.46-.31.29-.61.54-.9.78-.59.48-1.16.91-1.73,1.31-1.14.82-2.28,1.52-3.41,2.2a75.82,75.82,0,0,1-6.85,3.55,133.13,133.13,0,0,1-13.9,5.41c-4.66,1.57-9.36,2.91-14.08,4.12s-9.44,2.31-14.18,3.32a564.47,564.47,0,0,1-57.15,8.5c-9.54,1-19.14,1.87-28.74,2.29s-19.21.57-28.8.38-19.17-.72-28.72-1.59c-4.77-.42-9.53-1-14.29-1.56-2.37-.31-4.75-.64-7.12-1l-3.55-.56a21.82,21.82,0,0,1-3.54-.77,17,17,0,0,1-11.51-13c-.1-.6-.18-1.2-.24-1.8l-.12-1.79c-.15-2.39-.34-4.78-.42-7.17-.22-4.78-.43-9.56-.57-14.35s-.33-9.57-.46-14.35c-.57-19.13-1-38.27-1.42-57.41l-2.28-114.83c-2.85-153.11-5.44-306.22-9.22-459.3q-1.44-57.41-3.23-114.8c-1.26-38.26-2.62-76.52-4.81-114.74l-.41-7.17-.5-7.16c-.34-4.77-.64-9.55-1.08-14.31-.78-9.54-1.69-19.06-2.63-28.59-1.89-19-4-38.07-6.14-57.09-4.25-38-8.67-76.08-12-114.22-1.6-19.07-3-38.18-3.21-57.33s-.23-38.28-.12-57.43.4-38.28,1-57.42c.35-9.57.75-19.13,1.38-28.68s1.43-19.1,2.78-28.59q4.19-28.4,7.4-56.94t5.59-57.14q2.43-28.61,4.34-57.25,1-14.32,1.78-28.65l.79-14.33.37-7.17.17-3.58.08-1.79A17.94,17.94,0,0,1,564.9,456.8Z" transform="translate(-185.63 -39.05)"/><path class="cls-1" d="M428.5,2079.5s11,12,27,14,39-3,39-3-7,41-10,64-53,26-66,15c-4.61-3.9-18-12-18-12Z" transform="translate(-185.63 -39.05)"/><path class="cls-1" d="M476.5,2209.5s-38,27-65,39-35,11-35,11l-6,19s23-.52,62-20c32-16,44-33,44-33Z" transform="translate(-185.63 -39.05)"/><path class="cls-1" d="M388.5,2206.5l-3,15s19,36,39,52,32.29,17.33,32.29,17.33l2.74-20s-15-1.38-35-23.38S388.5,2206.5,388.5,2206.5Z" transform="translate(-185.63 -39.05)"/><path class="cls-12" d="M526.5,2275.5" transform="translate(-185.63 -39.05)"/><path class="cls-6" d="M581.35,365.25l1.21.09a248.9,248.9,0,0,1,24.7,41.76c9.94,21.4-20.73,96.75-20.67,96.89H571.77c-3.53-12.91-8.25-35.83-8.25-66.13,0-21.85,4.39-45.73,7.87-61.23A114.32,114.32,0,0,0,581.35,365.25Z" transform="translate(-185.63 -39.05)"/><path class="cls-1" d="M596.33,2129.51s21.05,4,33.11,0,32.06-18,32.06-18,11,29,16,38,15,26,15,26-5,23-21,32-55-1-55-1Z" transform="translate(-185.63 -39.05)"/><path class="cls-1" d="M640.5,2253.5l-1,19s19.83,26.94,47,36c27,9,65.53,6.3,65.53,6.3l-6.5-15.06s-39,.76-58-9.24S640.5,2253.5,640.5,2253.5Z" transform="translate(-185.63 -39.05)"/><path class="cls-1" d="M724.5,2240.5l6,19s-3.15,34.72-16,49c-18,20-55,31-55,31l-7-19s38.18-13.18,48-23C718.5,2279.5,724.5,2240.5,724.5,2240.5Z" transform="translate(-185.63 -39.05)"/><path class="cls-11" d="M587.82,369.63l.17-.2q1.73-2.05,3.35-4.18l1.21.09a248.9,248.9,0,0,1,24.7,41.76c3.57,7.7,10.05,24.61,16.88,43.1,0,0,24.93,53.79,24.43,62.29-.2,3.38-8.5,46.5-8.5,46.5s-13.71,71.58-36.73,113.75C567.65,756.4,539.06,847,539.06,847S529,711,536.44,645C541,604.28,587.82,369.63,587.82,369.63Z" transform="translate(-185.63 -39.05)"/><path class="cls-6" d="M587.82,369.63c1.18-1.46,2.35-2.92,3.52-4.39h0l1.21.09h0a233.14,233.14,0,0,1,13.06,19.8q6.08,10.19,11.14,20.93c3.35,7.17,6.16,14.57,9,21.93s5.6,14.79,8.35,22.21h0q5.54,12,10.79,24.2,2.62,6.08,5.14,12.21c1.66,4.09,3.29,8.19,5,12.26.86,2,1.75,4.07,2.56,6.15a35,35,0,0,1,2,6.54,7.39,7.39,0,0,1,.08,1l0,.91c0,.6-.09,1.13-.13,1.7l-.32,3.33-.64,6.63c-.8,8.84-1.92,17.63-3.12,26.39-.3,2.19-.65,4.37-1,6.56l-1.08,6.61c-.75,4.39-1.56,8.77-2.39,13.14Q648.55,591,645.6,604c-3.91,17.42-8.7,34.75-15.49,51.59-1.68,4.21-3.58,8.37-5.54,12.51s-4.32,8.29-6.38,12l-6.35,11.48-6.16,11.61c-8.09,15.54-16,31.21-23.54,47.1-15.14,31.75-29.34,64-43.07,96.68h0q-2.13-30.07-3.44-60.2c-.89-20.08-1.54-40.17-1.8-60.27s-.16-40.21.92-60.28c.56-10,1.35-20.06,2.88-30s3.18-19.84,4.91-29.74c7-39.59,14.52-79.07,22.11-118.54S580,409.06,587.82,369.63Zm0,0Q576.07,428.77,564.64,488c-7.59,39.47-15.14,79-22.11,118.54-1.73,9.9-3.43,19.8-4.91,29.74s-2.33,20-2.88,30c-1.08,20.07-1.16,40.18-.92,60.28s.91,40.19,1.8,60.27,2,40.15,3.44,60.2h0c4-17.27,9.11-34.27,14.54-51.15q2-6.33,4.21-12.62c1.42-4.2,2.83-8.41,4.39-12.57,3-8.35,6.16-16.65,9.35-24.94l5-12.37c1.7-4.11,3.44-8.19,5.19-12.28s3.57-8.14,5.38-12.21,3.65-8.12,5.6-12.12,3.82-8,5.78-12l6.08-11.92c2.06-4.09,4-7.64,5.8-11.51s3.57-7.73,5.24-11.69c6.71-15.81,12.66-32.22,18.19-48.82q4.11-12.47,7.65-25.16c1.17-4.23,2.28-8.47,3.35-12.72l.78-3.18c.26-1.05.5-2.1.74-3.19.49-2.15,1-4.31,1.49-6.45,2.1-8.58,4.26-17.16,6.63-25.69.57-2.14,1.16-4.27,1.69-6.41l.78-3.21c.12-.52.26-1.08.36-1.58l.15-.74a5,5,0,0,0,0-.67,33.68,33.68,0,0,0-1-6.33c-.51-2.14-1.08-4.27-1.73-6.39-1.29-4.23-2.92-8.34-4.59-12.42s-3.39-8.15-5.14-12.21q-5.25-12.16-10.79-24.2h0c-2.74-7.42-5.51-14.83-8.35-22.21s-5.68-14.77-9-21.93-7.09-14.14-11.14-20.93a233.14,233.14,0,0,0-13.06-19.8h0l-1.21-.09h0C590.17,366.71,589,368.18,587.82,369.63Z" transform="translate(-185.63 -39.05)"/><path d="M438.88,72s-14.29-7.51-36.67,19.86c-29.91,36.58-42,82.12-43.23,145-1.9,100.82,78,163.6,78,163.6S412.49,344,421.12,282.51c15.85-112.87,57.7-144.58,57.7-144.58s36.47-10.83,78.63,38.68c39.95,46.92,43.12,90.68,33.61,139.5s-33.61,84.34-33.61,84.34,59.61-26.63,98.92-102.73c40.17-77.75,39.95-149-23.46-208.62s-137-57.7-179.45-36.78C437.52,60.18,438.88,72,438.88,72Z" transform="translate(-185.63 -39.05)"/><path class="cls-13" d="M409.86,108.53c.46,1.06-11.4,12.73-23.53,42.64S374.46,195.68,373,195.3s4.65-32.06,13.67-53.33C394.22,124.11,409.28,107.18,409.86,108.53Z" transform="translate(-185.63 -39.05)"/><path class="cls-13" d="M418.66,110.43c.65,1.3-12.56,21.61-26.68,61.67s-14.53,55.08-16.47,54.78,6-41.91,16.56-70.45C400.92,132.46,417.83,108.76,418.66,110.43Z" transform="translate(-185.63 -39.05)"/><path class="cls-13" d="M415.94,105.24c.59,1.26-13.57,19.66-27.68,56.78s-13.5,51.39-15.32,51,6.51-39.24,17-65.66C398.79,125.18,415.19,103.63,415.94,105.24Z" transform="translate(-185.63 -39.05)"/><path class="cls-13" d="M427.77,109c.78,1.61-13,19.08-30.6,67.74s-15.24,60-17.61,59.59,5.94-43.95,19.08-78.6C409.68,128.61,426.77,106.95,427.77,109Z" transform="translate(-185.63 -39.05)"/><path class="cls-13" d="M408.4,164c10.93-26.6,18.52-37.19,17.9-38.4-1-2-17.64,20-28,49.38C386,209.9,378.66,253.63,381,254c2.06.3.35-8.17,10.68-42.57-7.51,31.08-10.91,62.37-8.9,62.57,2.39.24-.77-10.9,13.39-60.67s26.68-68.17,25.78-69.72C421.29,142.37,415.13,150.55,408.4,164Z" transform="translate(-185.63 -39.05)"/><path class="cls-13" d="M448.44,65a9.54,9.54,0,0,0-3.86,5.58,10.16,10.16,0,0,0,.15,5c.32.76.95-2.77,2.76-5.81,2.94-4.91,11-6.26,8.1-6.52A11.45,11.45,0,0,0,448.44,65Z" transform="translate(-185.63 -39.05)"/><path class="cls-13" d="M450.42,67.13a9.54,9.54,0,0,0-3.86,5.58,10.16,10.16,0,0,0,.15,5c.32.76,1.08-4.11,2.89-7.15,2.94-4.91,10.83-4.93,8-5.18A11.45,11.45,0,0,0,450.42,67.13Z" transform="translate(-185.63 -39.05)"/><path class="cls-13" d="M463.43,69.7a11.59,11.59,0,0,0-4.4-.41c3-1.32,5.25-1.79,3.28-2a14.16,14.16,0,0,0-8.42,1.54,9.71,9.71,0,0,0-4.46,5.79,10.18,10.18,0,0,0,.16,5.39c.2.46.51-.47,1.1-1.93a5.86,5.86,0,0,0,.06,1.75c.19.82,1.75-3.87,4-6.53C458.49,69,466.18,70.51,463.43,69.7Z" transform="translate(-185.63 -39.05)"/><path class="cls-13" d="M477.59,77.42a27.6,27.6,0,0,0-6.8-.3c0-.08-.28-.15-.76-.22a15.94,15.94,0,0,0-7.64.71c3.83-2,8.61-1.13,6.36-1.79a11.31,11.31,0,0,0-6.42,0c4.58-2.19,9.53-2.71,6.53-3.13A18,18,0,0,0,458.79,74a10,10,0,0,0-5.2,6,10.22,10.22,0,0,0,.17,5.78c.42.92,1.27-3,3.71-6.29a8.65,8.65,0,0,1,.86-1,9,9,0,0,0-1.54,2.43,10.39,10.39,0,0,0-.72,5c.07.31.33-.16.75-1a7,7,0,0,0,.41,3c.28.6.78-1.29,2-3.45a10.25,10.25,0,0,0,.18,6.23c.49,1,1.49-3.18,4.38-6.54C468.6,78.57,482.89,78.31,477.59,77.42Z" transform="translate(-185.63 -39.05)"/><path class="cls-13" d="M489.23,90.71a24.33,24.33,0,0,0-11.66.7c5.89-2.66,13.37-3,9.3-3.66a26.43,26.43,0,0,0-9.09,0c7.24-2.34,16-2.27,10.9-3.26a40.79,40.79,0,0,0-4.77-.64c2.86-.46,4.11-.68,1.38-1.21-5.68-1.1-11.32-1-15.24.29-3.4,1.08-6.34,3.42-7.36,6.35-.54,1.55-.8,4.78.19,6.77.43.85,1.19-1.37,3-4a10,10,0,0,0,.44,5.83c.35.69.92-.65,2.06-2.56a10.07,10.07,0,0,0,.31,5.72c.34.71.93-1.11,2.23-3.41l0,.14A10.26,10.26,0,0,0,471,104c.49,1,1.49-3.18,4.38-6.54C480.23,91.86,494.52,91.6,489.23,90.71Z" transform="translate(-185.63 -39.05)"/><path class="cls-13" d="M482.12,95.29c-4.18,1-7.74,3.34-9,6.46-.65,1.65-1,5.14.21,7.4.69,1.31,2.14-3.48,6.36-7,7.35-6.11,31-4.18,21.87-6.2C494.18,94.34,487,94.15,482.12,95.29Z" transform="translate(-185.63 -39.05)"/><path class="cls-13" d="M496.21,113.25c-4.61-1-9-.48-11.34,1.82a9.29,9.29,0,0,0-2.4,6.86c.21,1.52,3.34-2.18,8.82-3.41,9.8-2.22,35.31,11.58,25.6,4.83C509.31,118.08,501.72,114.47,496.21,113.25Z" transform="translate(-185.63 -39.05)"/><path class="cls-13" d="M517.13,111a88.8,88.8,0,0,0-17.44-5c11.67-1,24,.32,15.16-1.85-10-2.48-19.47-3.22-25.74-2.29-5.25.78-9.66,3.12-11.17,6.46a10.43,10.43,0,0,0,.23,8.16c.15.27.33.32.55.22a7,7,0,0,0,.41,1.64c.63,1.61,3.09-3.24,8.76-6C498,107.39,529.48,115.91,517.13,111Z" transform="translate(-185.63 -39.05)"/><ellipse class="cls-11" cx="447.17" cy="825.42" rx="7.21" ry="16.44" transform="translate(-587.21 385.24) rotate(-36.26)"/><path class="cls-6" d="M453,821.16a32.79,32.79,0,0,1,4.55,8.46,25.49,25.49,0,0,1,1.11,4.7,7.77,7.77,0,0,1,.11,1.24,7.42,7.42,0,0,1-.06,1.3,4.67,4.67,0,0,1-1.24,2.58,5,5,0,0,1-2.83,1.24,8.62,8.62,0,0,1-2.88-.25,13.45,13.45,0,0,1-4.82-2.3c-2.83-2.05-4.84-4.83-6.81-7.52a34.23,34.23,0,0,1-4-9.12,17,17,0,0,1-.63-4.95,7.87,7.87,0,0,1,.47-2.46,4.28,4.28,0,0,1,1.48-2,4.39,4.39,0,0,1,2.33-.61,7.9,7.9,0,0,1,2.36.46,16.05,16.05,0,0,1,4.2,2.32A32.79,32.79,0,0,1,453,821.16Zm0,0a32.79,32.79,0,0,0-6.7-6.88,16.05,16.05,0,0,0-4.2-2.32,7.19,7.19,0,0,0-2.36-.44,3.73,3.73,0,0,0-2.22.72,3.81,3.81,0,0,0-1.15,2,7.26,7.26,0,0,0-.08,2.3,15.32,15.32,0,0,0,1.28,4.46,31.42,31.42,0,0,0,5.06,7.8,33.16,33.16,0,0,0,6.6,6.24,26,26,0,0,0,3.59,2.34,6.13,6.13,0,0,0,.92.39,5.26,5.26,0,0,0,.91.26,3.42,3.42,0,0,0,1.72-.09,3.07,3.07,0,0,0,1.4-1.36,5.94,5.94,0,0,0,.6-2.23,11.67,11.67,0,0,0-.8-4.71A32.79,32.79,0,0,0,453,821.16Z" transform="translate(-185.63 -39.05)"/><ellipse class="cls-11" cx="454.82" cy="925.87" rx="8.55" ry="16.44" transform="translate(-383.94 88.37) rotate(-13.12)"/><path class="cls-6" d="M463.14,923.93a33.63,33.63,0,0,1,.93,10,15.32,15.32,0,0,1-1.24,5,8.49,8.49,0,0,1-1.5,2.33A6.2,6.2,0,0,1,458.8,943a6.4,6.4,0,0,1-3.07-.06,8.73,8.73,0,0,1-2.62-1.24,15.89,15.89,0,0,1-3.84-3.88,25.45,25.45,0,0,1-2.6-4.63,35.15,35.15,0,0,1-1.61-5,25.09,25.09,0,0,1-.22-10.47,13.38,13.38,0,0,1,2-4.94,7.8,7.8,0,0,1,4.28-2.87,6,6,0,0,1,4.72,1.23,14.56,14.56,0,0,1,3.43,3.64A27.64,27.64,0,0,1,463.14,923.93Zm0,0a27.64,27.64,0,0,0-3.91-9.2,14.56,14.56,0,0,0-3.43-3.64,6,6,0,0,0-4.72-1.23,3.89,3.89,0,0,0-2,1.35,7.32,7.32,0,0,0-1.06,2.15,16.86,16.86,0,0,0-1,4.62,31.86,31.86,0,0,0,.91,9.49,28.75,28.75,0,0,0,3.6,8.76,13.36,13.36,0,0,0,3,3.4,4.85,4.85,0,0,0,3.74,1.15,4.92,4.92,0,0,0,3.35-2.42,13.61,13.61,0,0,0,1.7-4.51,21.52,21.52,0,0,0,.44-5A27.34,27.34,0,0,0,463.14,923.93Z" transform="translate(-185.63 -39.05)"/><ellipse class="cls-11" cx="443.82" cy="1013.87" rx="16.44" ry="8.55" transform="translate(-831.58 1168.04) rotate(-76.41)"/><path class="cls-6" d="M452.12,1015.88a36.71,36.71,0,0,1-3.6,9.44,14.91,14.91,0,0,1-3.33,4.09,8.16,8.16,0,0,1-2.47,1.41,6.39,6.39,0,0,1-3.07.24,6.6,6.6,0,0,1-2.82-1.41,9,9,0,0,1-1.89-2.3,16.36,16.36,0,0,1-1.88-5.26,25,25,0,0,1,.53-10.68,22.94,22.94,0,0,1,4.9-9.4,16,16,0,0,1,4.08-3.44,6.11,6.11,0,0,1,2.53-.86,7.37,7.37,0,0,1,1.31,0,10.93,10.93,0,0,1,1.25.16,6,6,0,0,1,3.66,3.22,14.56,14.56,0,0,1,1.43,4.79A27.64,27.64,0,0,1,452.12,1015.88Zm0,0a27.64,27.64,0,0,0,.65-10,14.56,14.56,0,0,0-1.43-4.79,6,6,0,0,0-3.66-3.22,3.31,3.31,0,0,0-2.41.35,10.7,10.7,0,0,0-2,1.35,13.4,13.4,0,0,0-2.83,3.78,38.17,38.17,0,0,0-3.06,8.94,32.74,32.74,0,0,0-.76,9.27,13.12,13.12,0,0,0,1,4.32,4.7,4.7,0,0,0,2.61,2.72,5,5,0,0,0,3.92-.73,13.84,13.84,0,0,0,3.59-3.13A22,22,0,0,0,452.12,1015.88Z" transform="translate(-185.63 -39.05)"/><path class="cls-14" d="M446.92,1001.81a2.57,2.57,0,0,1,1.78.86,6.29,6.29,0,0,1,1.14,1.7,13,13,0,0,1,1,3.83,23.87,23.87,0,0,1-3.59,14.83,13,13,0,0,1-2.63,3,6.27,6.27,0,0,1-1.78,1,2.57,2.57,0,0,1-2,0,3.82,3.82,0,0,0,2.7-2,17.06,17.06,0,0,0,1.62-3.07,44.33,44.33,0,0,0,2.16-6.7,44.8,44.8,0,0,0,1.13-6.95,17.13,17.13,0,0,0,0-3.47A3.82,3.82,0,0,0,446.92,1001.81Z" transform="translate(-185.63 -39.05)"/><path class="cls-14" d="M451.91,913a2.57,2.57,0,0,1,2,0,6.29,6.29,0,0,1,1.78,1,13,13,0,0,1,2.62,3,23.87,23.87,0,0,1,3.51,14.85,13,13,0,0,1-1,3.83,6.27,6.27,0,0,1-1.14,1.69,2.57,2.57,0,0,1-1.78.85,3.82,3.82,0,0,0,1.52-3,17.06,17.06,0,0,0,.06-3.47,44.33,44.33,0,0,0-1.1-7A44.79,44.79,0,0,0,456.2,918a17.13,17.13,0,0,0-1.61-3.08A3.82,3.82,0,0,0,451.91,913Z" transform="translate(-185.63 -39.05)"/><path class="cls-14" d="M439.28,814.59a4.13,4.13,0,0,1,.36-.31l.46-.19a3.61,3.61,0,0,1,1-.07,6.61,6.61,0,0,1,1.89.45,14.72,14.72,0,0,1,3.28,1.88A26.84,26.84,0,0,1,455,828.16a14.71,14.71,0,0,1,.85,3.69,6.58,6.58,0,0,1-.12,1.94,3.6,3.6,0,0,1-.35.92l-.32.38a4.15,4.15,0,0,1-.4.26,2,2,0,0,0,.32-1.62,6.82,6.82,0,0,0-.44-1.61,23.34,23.34,0,0,0-1.48-3.08,62.32,62.32,0,0,0-3.81-5.76,63,63,0,0,0-4.41-5.32,23.34,23.34,0,0,0-2.52-2.31,6.79,6.79,0,0,0-1.42-.89A2,2,0,0,0,439.28,814.59Z" transform="translate(-185.63 -39.05)"/></svg>